<?xml version="1.0" encoding="UTF-8" standalone="no"?>
<!-- Created with Inkscape (http://www.inkscape.org/) -->
<svg id="svg2" xmlns="http://www.w3.org/2000/svg" xml:space="preserve" height="267.16" width="400" version="1.0" viewBox="0 0 242.5 242.5"><path id="Z" d="m979.22 1650.9c-186.61 0-337.89-151.3-337.89-337.9 0-77 25.81-148 69.22-204.9l280.89 369.2-30.2-0.1h-30.04c-32.09 0-62.14-2.2-83.79-6.4-13.17-2.6-24.91-7.4-34.45-14.1-11.22-7.8-25.25-24.5-34.39-40.9-1.06-1.9-2.59-4.8-4.57-8.7l-16.44 3.6 27.53 106.1h351.81l-279.51-373.8c18.18 1.6 25.42 2 40.13 2 11.36 0 28.57-0.7 51.62-2.1l49.66-3c18-1 33.1-1.6 44.5-1.6 25.7 0 42.4 2 58.9 7 12.8 4 25 9.9 36.1 17.5 19.6 13.6 38.7 35.4 50.1 57.2 1.2 2.2 3 5.5 5.1 10l14.9-3.8c-4.8-18.5-7.4-25.6-14.8-42.2-15-33.5-32-56-55.3-73.3-24-17.7-50.5-26.4-81.9-26.9h-4.7c-23.3 0-41.2 1.9-96.82 10.4-56.58 8.7-85.36 11.6-113.8 11.6-19.04 0-36.75-1.4-55.04-4.3-24.27-3.9-33.78-6.8-55.82-16.8 61.76-67.3 150.45-109.56 249-109.56 186.58 0 337.88 151.26 337.88 337.86s-151.3 337.9-337.88 337.9" fill-rule="evenodd" transform="matrix(.19407 0 0 -.19407 -66.294 320.39)" fill="#2058af"/><path id="Zurich" d="m42.731 149.88h-32.335l-3.9712 8.77c1.3247-0.7 1.8516-0.95 3.0117-1.41 1.8345-0.73 3.8545-1.31 5.8125-1.65 1.694-0.29 3.257-0.43 5.795-0.5 1.134-0.03 2.198-0.05 3.191-0.05h4.787l-25.154 35.95h35.558l4.102-9.38c-1.427 0.82-1.938 1.09-3.028 1.58-2.065 0.93-4.324 1.63-6.643 2.04-1.833 0.32-3.897 0.5-6.463 0.56-0.858 0.03-1.954 0.04-3.289 0.04h-6.3l24.926-35.95m106.87 41.11c-0.64-0.56-0.86-0.82-1.27-1.45-0.26-0.41-0.48-0.83-0.64-1.25-0.35-0.94-0.57-2.32-0.57-3.62v-24.76l0.02-2.41c0.02-2.76 0.09-3.51 0.44-4.63 0.14-0.44 0.33-0.87 0.58-1.28 0.43-0.7 0.72-1.02 1.55-1.71h-13.2c0.86 0.74 1.14 1.03 1.53 1.63 0.28 0.42 0.49 0.87 0.63 1.33 0.31 1 0.41 1.99 0.43 4.43 0.01 1.25 0.01 2.08 0.01 2.47v24.62c0 1.44-0.25 2.98-0.65 3.97-0.17 0.42-0.39 0.83-0.65 1.21-0.31 0.45-0.53 0.7-1.25 1.45h13.04m41.29-40.74c-1.02-0.33-1.42-0.43-2.51-0.66-2.36-0.51-4.64-0.74-7.23-0.74-4.42 0-8.23 0.71-11.72 2.18-2.07 0.88-3.97 2.01-5.65 3.36-5.07 4.08-7.82 9.99-7.82 16.8 0 6.61 2.66 12.32 7.51 16.15 4.01 3.16 9.16 4.76 15.36 4.76 3.87 0 7.48-0.58 11.53-1.85 0.15-0.04 0.38-0.11 0.67-0.21v-7.47c-0.98 0.66-1.32 0.87-1.92 1.22-0.79 0.46-1.63 0.88-2.52 1.26-2.48 1.04-4.74 1.53-7.18 1.53-4.25 0-7.89-1.53-10.59-4.43-2.66-2.88-4.1-6.88-4.1-11.39 0-4.31 1.34-8.3 3.72-11.1 1.02-1.2 2.29-2.24 3.72-3.04 2.33-1.3 5.03-1.97 7.95-1.97 2.52 0 4.95 0.49 7.39 1.48 1.52 0.62 2.07 0.92 3.39 1.86v-7.74m36.04 22.08v10.03c0 2.23-0.03 3.04-0.18 4.18-0.08 0.63-0.23 1.23-0.44 1.78-0.29 0.77-0.78 1.47-1.48 2.15-0.12 0.12-0.31 0.29-0.57 0.52h13.14c-0.55-0.54-0.75-0.77-1.11-1.27-0.32-0.46-0.58-0.91-0.76-1.35-0.4-0.96-0.5-1.69-0.54-3.72-0.02-1.21-0.03-1.92-0.03-2.13l0.03-22.61v-2.44c0-1.81 0.15-3.21 0.46-4.35 0.14-0.53 0.36-1.04 0.65-1.52 0.43-0.7 0.74-1.03 1.63-1.72h-13.42c0.77 0.64 1.04 0.94 1.5 1.68 0.29 0.47 0.53 0.95 0.68 1.43 0.32 0.96 0.44 2.16 0.44 4.31v10h-18.43v-7.51c0-2.27 0.04-3.76 0.12-4.86 0.04-0.68 0.15-1.28 0.32-1.8 0.29-0.89 1.04-2.11 1.71-2.81 0.1-0.1 0.25-0.25 0.46-0.44h-13.17c0.78 0.81 0.99 1.06 1.35 1.58 0.29 0.42 0.52 0.89 0.7 1.4 0.36 1.04 0.42 1.6 0.45 4.35l0.04 2.6v22.5c0 2.29-0.04 3.29-0.17 4.33-0.06 0.54-0.2 1.08-0.4 1.63-0.34 0.89-0.83 1.6-1.58 2.31-0.1 0.09-0.25 0.23-0.46 0.41h13.01c-0.56-0.59-0.76-0.83-1.09-1.35-0.25-0.4-0.47-0.83-0.65-1.29-0.43-1.08-0.56-1.86-0.6-3.6-0.03-0.87-0.04-1.69-0.04-2.46v-9.96h18.43m-178.6-22.45c0.815 0.66 1.094 0.97 1.498 1.66 0.263 0.45 0.461 0.93 0.587 1.43 0.154 0.62 0.241 1.25 0.26 1.89 0.012 0.45 0.024 1.3 0.032 2.56l0.017 2.37v11.76c0 4.15 0.032 5.58 0.162 7.24 0.232 2.95 1.167 5.4 2.882 7.56 1.735 2.18 4.091 3.81 6.936 4.82 2.208 0.77 4.691 1.16 7.497 1.16 3.089 0 6.108-0.47 8.328-1.29 2.328-0.87 4.567-2.37 6.121-4.11 1.897-2.12 2.97-4.69 3.321-7.96 0.211-1.95 0.278-3.71 0.278-7.36v-11.82l-0.017-2.32-0.001-0.33c0-2.08 0.169-3.38 0.372-4.08 0.427-1.45 1.17-2.3 1.844-2.82 0.26-0.2 0.339-0.26 0.47-0.36h-12.177c0.501 0.75 0.661 1.07 0.896 1.79 0.157 0.48 0.27 1 0.341 1.55 0.19 1.46 0.261 3.31 0.261 6.82v12.76c0 3.55-0.087 5.33-0.341 6.97-0.172 1.1-0.531 2.12-1.059 3-1.037 1.72-2.851 2.98-5.064 3.53-0.884 0.22-1.863 0.33-2.917 0.33-2.12 0-3.952-0.44-5.581-1.34-1.037-0.57-1.873-1.3-2.443-2.13-1.126-1.65-1.457-3.31-1.497-7.53l-0.049-5.17v-10.42c0-3.5 0.072-5.41 0.261-6.82 0.143-1.08 0.471-2.05 1.009-2.97 0.049-0.08 0.125-0.21 0.228-0.37h-12.455m57.929 32.66c0 0.75 0 1.44 0.01 2.07 0.04 1.9 0.18 2.89 0.54 3.79 0.18 0.44 0.41 0.86 0.7 1.25 0.37 0.5 0.54 0.71 1.14 1.34h-13.072c0.762-0.7 0.999-0.95 1.368-1.44 0.3-0.39 0.541-0.83 0.716-1.3 0.338-0.9 0.472-2.02 0.472-3.97v-26.98c0-2.18-0.118-3.45-0.406-4.38-0.162-0.51-0.403-1.02-0.717-1.49-0.389-0.6-0.652-0.89-1.383-1.55h10.612c1.31 0 2.58 0.02 3.81 0.05 3.27 0.08 5.19 0.28 7.03 0.71 2.63 0.62 4.99 1.93 6.68 3.7 1.84 1.93 2.79 4.22 2.79 6.75 0 1.06-0.17 2.13-0.51 3.16-0.6 1.86-1.62 3.33-3.24 4.69-1.43 1.21-3 2.11-5.06 2.93-0.73 0.29-1.04 0.4-1.83 0.64l6.38 7.5c0.78 0.92 1.78 2.03 3 3.36 1.93 2.08 3.21 3.4 4.66 4.77 0.62 0.59 1.21 1.13 1.77 1.61 0.53 0.46 0.81 0.69 1.5 1.24h-5.16c-0.76 0-1.48-0.01-2.13-0.04-1.79-0.05-2.91-0.32-4.09-0.96-1.38-0.74-2.78-1.85-4.25-3.37-0.46-0.46-1.12-1.2-2-2.21-0.78-0.89-1.35-1.55-1.71-1.99l-7.62-9.13v9.25zm0.66-12.7c0.6 0 1.31-0.06 2.16-0.18 2.21-0.32 3.7-0.81 5.17-1.68 0.77-0.45 1.41-0.97 1.92-1.54 1.06-1.19 1.6-2.77 1.6-4.64 0-2.14-0.72-3.86-2.12-5.05-0.8-0.68-1.75-1.19-2.78-1.48-1.55-0.45-3.51-0.69-5.54-0.69-0.34 0-0.56 0-1.07 0.02v15.22c0.32 0.02 0.46 0.02 0.66 0.02" fill-rule="evenodd" transform="matrix(1.5526 0 0 1.5526 -66.294 -56.101)" fill="#15356f"/></svg>
